<svg width="24" height="24" viewBox="0 0 24 24" fill="none" xmlns="http://www.w3.org/2000/svg">
<path d="M3 3L21 21Z" fill="#9E9E9E"/>
<path d="M3 3L21 21" stroke="#9E9E9E" stroke-width="2" stroke-linecap="round" stroke-linejoin="round"/>
<path d="M8.8811 10.417C8.58034 11.0093 8.45112 11.6769 8.51685 12.3437C8.59628 13.1494 8.95216 13.9031 9.52466 14.4756C10.0972 15.048 10.8508 15.404 11.6565 15.4834C12.3232 15.5491 12.99 15.4188 13.5823 15.1181L16.7903 18.3261C15.4564 19.0266 13.8653 19.4999 12.0002 19.5C8.89054 19.5 6.53399 18.1828 4.86157 16.6806L4.5354 16.3779C3.49955 15.371 2.61999 14.2164 1.92407 12.9531L1.63696 12.4043C1.57671 12.278 1.54523 12.1399 1.54517 12L1.55103 11.8935C1.56277 11.7901 1.59191 11.6891 1.63696 11.5947C2.37213 10.116 3.35284 8.77271 4.53735 7.62204C4.79341 7.37506 5.06742 7.13148 5.35962 6.89548L8.8811 10.417ZM11.9983 4.49997H12.0002C15.3169 4.50002 17.7753 5.99754 19.4622 7.62009V7.62106C20.6455 8.77091 21.6259 10.1125 22.3606 11.5898V11.5908C22.4224 11.7185 22.4553 11.8591 22.4553 12.0009L22.4495 12.1064C22.4415 12.1767 22.4251 12.2458 22.4016 12.3125L22.3606 12.4101C21.8857 13.3677 21.3054 14.2682 20.6331 15.0976L10.1907 4.65524C10.6758 4.57021 11.1666 4.51966 11.6594 4.50485L11.9983 4.49997Z" fill="#9E9E9E" stroke="#9E9E9E"/>
</svg>