<svg width="22" height="20" viewBox="0 0 22 20" fill="none" xmlns="http://www.w3.org/2000/svg">
<path opacity="0.4" fill-rule="evenodd" clip-rule="evenodd" d="M0.999934 5.71069C0.919934 6.83069 0.880117 8.01074 0.870117 9.24074L0.870117 10.7407C0.880117 11.9507 0.929934 13.2107 0.999934 14.5107L0.999934 14.5307C1.36993 18.5607 3.19993 19.8607 8.49993 19.8607C16.0999 19.8607 16.0999 17.0107 16.0999 10.1107C16.0999 3.21069 16.0999 0.360687 8.49993 0.360687C3.19993 0.360687 1.36993 1.66069 0.999934 5.71069Z" fill="black"/>
<path fill-rule="evenodd" clip-rule="evenodd" d="M19.0736 9.36037L17.4306 7.72137C17.2836 7.57537 17.2096 7.38237 17.2096 7.19037C17.2096 6.99937 17.2836 6.80737 17.4286 6.66137C17.7216 6.36737 18.1966 6.36737 18.4896 6.65937L21.4176 9.57937C21.7006 9.86037 21.7006 10.3604 21.4176 10.6414L18.4896 13.5614C18.1966 13.8534 17.7216 13.8534 17.4286 13.5594C17.1366 13.2654 17.1366 12.7914 17.4306 12.4994L19.0736 10.8604L8.83677 10.8604C8.42509 10.8604 8.09452 10.5148 8.09452 10.1032C8.09452 9.69126 8.42546 9.36037 8.83737 9.36037L19.0736 9.36037Z" fill="black"/>
</svg>
