<svg width="20" height="20" viewBox="0 0 20 20" fill="none" xmlns="http://www.w3.org/2000/svg">
<path d="M17.0484 4.11207C16.6412 3.70466 16.1577 3.38146 15.6255 3.16096C15.0933 2.94046 14.5229 2.82697 13.9469 2.82697C13.3709 2.82697 12.8005 2.94046 12.2683 3.16096C11.7361 3.38146 11.2526 3.70466 10.8454 4.11207L10.0003 4.95721L9.15514 4.11207C8.33258 3.2895 7.21694 2.82739 6.05365 2.82739C4.89037 2.82739 3.77473 3.2895 2.95216 4.11207C2.12959 4.93464 1.66748 6.05028 1.66748 7.21356C1.66748 8.37685 2.12959 9.49249 2.95216 10.3151L10.0003 17.3632L17.0484 10.3151C17.4558 9.90783 17.779 9.42432 17.9995 8.89216C18.22 8.35999 18.3335 7.7896 18.3335 7.21356C18.3335 6.63752 18.22 6.06713 17.9995 5.53497C17.779 5.0028 17.4558 4.5193 17.0484 4.11207Z" stroke="#9E9E9E" stroke-width="2" stroke-linecap="round" stroke-linejoin="round"/>
</svg>