<svg width="20" height="20" viewBox="0 0 20 20" fill="none" xmlns="http://www.w3.org/2000/svg">
<path d="M17.4351 20C17.3492 20 17.261 20 17.1739 19.9871C12.773 19.5444 8.66043 17.5939 5.53302 14.4661C2.4056 11.3383 0.455663 7.22548 0.0135783 2.82454C-0.023076 2.47496 0.0146848 2.12158 0.124378 1.78764C0.23407 1.4537 0.41321 1.14676 0.650018 0.887007C0.904154 0.60741 1.21403 0.384139 1.55969 0.23157C1.90536 0.0790019 2.27914 0.000519193 2.65698 0.0011764H5.90506C6.47981 0.000527796 7.04014 0.181025 7.50644 0.517022C7.97275 0.85302 8.3213 1.32743 8.50258 1.87283L9.56135 5.03147C9.72295 5.51424 9.74612 6.03261 9.62823 6.52787C9.51034 7.02313 9.25611 7.47547 8.89432 7.83366L8.38611 8.34186C9.23143 9.65441 10.3512 10.7682 11.6683 11.6064L12.1671 11.1064C12.5269 10.7471 12.9796 10.4951 13.4744 10.3783C13.9693 10.2615 14.4869 10.2847 14.9693 10.4453L18.128 11.504C18.6725 11.685 19.1462 12.0326 19.4821 12.4978C19.818 12.9629 19.9991 13.5219 19.9997 14.0956V17.3437C20.0107 18.0357 19.747 18.7038 19.2662 19.2017C18.7855 19.6997 18.1271 19.9867 17.4351 20ZM2.65698 1.82695C2.53723 1.82417 2.41826 1.84685 2.30793 1.89349C2.1976 1.94014 2.09844 2.00968 2.01701 2.09752C1.94923 2.17098 1.89758 2.25781 1.86537 2.35243C1.83315 2.44704 1.82109 2.54735 1.82996 2.6469C2.23195 6.62845 3.99716 10.3488 6.82688 13.1785C9.65659 16.0082 13.377 17.7734 17.3586 18.1754H17.4257C17.5229 18.174 17.6189 18.1532 17.708 18.1142C17.7971 18.0752 17.8775 18.0188 17.9445 17.9484C18.0987 17.7856 18.1831 17.569 18.1798 17.3449V14.0956C18.1797 13.904 18.1193 13.7173 18.0072 13.5619C17.8951 13.4065 17.7369 13.2903 17.5551 13.2298L14.3964 12.1769C14.2356 12.1233 14.0631 12.1154 13.8981 12.1543C13.7332 12.1931 13.5823 12.2772 13.4623 12.3969L12.9577 12.9028C12.6157 13.2433 12.1532 13.4352 11.6707 13.4369C11.3099 13.4373 10.9575 13.3282 10.6601 13.1239C9.13234 12.148 7.83273 10.8544 6.84972 9.33122C6.62212 8.98297 6.5215 8.56693 6.56478 8.15316C6.60806 7.7394 6.79262 7.35319 7.08735 7.05959L7.6038 6.54314C7.72418 6.42363 7.80853 6.27267 7.84722 6.10751C7.88591 5.94234 7.87738 5.76963 7.82261 5.60908L6.7709 2.45162C6.71093 2.2697 6.59505 2.11136 6.43978 1.99919C6.28451 1.88702 6.09778 1.82674 5.90623 1.82695H2.65698ZM19.0868 7.3031C18.8448 7.30279 18.6127 7.20651 18.4416 7.03538C18.2705 6.86425 18.1742 6.63223 18.1739 6.39021C18.1726 5.18003 17.6913 4.01977 16.8356 3.16404C15.9799 2.30832 14.8196 1.82702 13.6094 1.82578C13.3673 1.82578 13.1351 1.7296 12.9639 1.5584C12.7927 1.3872 12.6965 1.155 12.6965 0.912887C12.6965 0.670775 12.7927 0.438578 12.9639 0.267379C13.1351 0.096179 13.3673 3.60776e-09 13.6094 0C15.3036 0.00186828 16.9279 0.675721 18.1259 1.87371C19.3239 3.07171 19.9978 4.696 19.9997 6.39021C19.9994 6.63223 19.9031 6.86425 19.7319 7.03538C19.5608 7.20651 19.3288 7.30279 19.0868 7.3031ZM15.4399 7.3031C15.1979 7.30279 14.9659 7.20651 14.7947 7.03538C14.6236 6.86425 14.5273 6.63223 14.527 6.39021C14.5267 6.1482 14.4304 5.91618 14.2593 5.74505C14.0881 5.57392 13.8561 5.47764 13.6141 5.47733C13.3718 5.47733 13.1395 5.38108 12.9682 5.20977C12.7969 5.03846 12.7006 4.80612 12.7006 4.56385C12.7006 4.32158 12.7969 4.08923 12.9682 3.91792C13.1395 3.74661 13.3718 3.65037 13.6141 3.65037C14.3405 3.651 15.0369 3.9399 15.5504 4.45361C16.0639 4.96733 16.3525 5.66386 16.3528 6.39021C16.3526 6.51045 16.3288 6.62947 16.2825 6.74046C16.2363 6.85146 16.1686 6.95224 16.0834 7.03704C15.9982 7.12184 15.897 7.18899 15.7858 7.23465C15.6746 7.2803 15.5554 7.30356 15.4352 7.3031H15.4399Z" fill="#757575"/>
</svg>