<svg width="24" height="24" viewBox="0 0 24 24" fill="none" xmlns="http://www.w3.org/2000/svg">
            <path fill-rule="evenodd" clip-rule="evenodd" d="M6.54554 10.1818V7.45455C6.54554 6.00791 7.12022 4.62053 8.14314 3.5976C9.16607 2.57467 10.5535 2 12.0001 2C13.4467 2 14.8341 2.57467 15.857 3.5976C16.88 4.62053 17.4546 6.00791 17.4546 7.45455V10.1818H18.3637C19.87 10.1818 21.091 11.4029 21.091 12.9091V19.2727C21.091 20.779 19.87 22 18.3637 22H5.63645C4.13022 22 2.90918 20.779 2.90918 19.2727V12.9091C2.90918 11.4029 4.13022 10.1818 5.63645 10.1818H6.54554ZM9.42879 4.88325C10.1107 4.2013 11.0357 3.81818 12.0001 3.81818C12.9645 3.81818 13.8894 4.2013 14.5714 4.88325C15.2533 5.5652 15.6365 6.49012 15.6365 7.45455V10.1818H8.36372V7.45455C8.36372 6.49012 8.74684 5.5652 9.42879 4.88325ZM5.63645 12C5.13438 12 4.72736 12.407 4.72736 12.9091V19.2727C4.72736 19.7748 5.13438 20.1818 5.63645 20.1818H18.3637C18.8658 20.1818 19.2728 19.7748 19.2728 19.2727V12.9091C19.2728 12.407 18.8658 12 18.3637 12H5.63645Z" fill="#404040"/>
          </svg>