<svg width="24" height="24" viewBox="0 0 24 24" fill="none" xmlns="http://www.w3.org/2000/svg">
            <path d="M2.81641 21.5918V2.40816C2.81641 2.28912 2.86743 2.20833 2.96947 2.16582C3.07151 2.1233 3.16505 2.14456 3.25008 2.22959L3.98988 2.96939C4.09192 3.07143 4.21096 3.12245 4.34702 3.12245C4.48307 3.12245 4.60212 3.07143 4.70416 2.96939L5.52049 2.15306C5.62253 2.05102 5.74158 2 5.87763 2C6.01368 2 6.13273 2.05102 6.23477 2.15306L7.0511 2.96939C7.15314 3.07143 7.27219 3.12245 7.40824 3.12245C7.5443 3.12245 7.66334 3.07143 7.76539 2.96939L8.58171 2.15306C8.68375 2.05102 8.8028 2 8.93885 2C9.07491 2 9.19396 2.05102 9.296 2.15306L10.1123 2.96939C10.2144 3.07143 10.3334 3.12245 10.4695 3.12245C10.6055 3.12245 10.7246 3.07143 10.8266 2.96939L11.6429 2.15306C11.745 2.05102 11.864 2 12.0001 2C12.1361 2 12.2552 2.05102 12.3572 2.15306L13.1735 2.96939C13.2756 3.07143 13.3946 3.12245 13.5307 3.12245C13.6667 3.12245 13.7858 3.07143 13.8878 2.96939L14.7042 2.15306C14.8062 2.05102 14.9252 2 15.0613 2C15.1974 2 15.3164 2.05102 15.4184 2.15306L16.2348 2.96939C16.3368 3.07143 16.4559 3.12245 16.5919 3.12245C16.728 3.12245 16.847 3.07143 16.9491 2.96939L17.7654 2.15306C17.8674 2.05102 17.9865 2 18.1225 2C18.2586 2 18.3776 2.05102 18.4797 2.15306L19.296 2.96939C19.398 3.07143 19.5171 3.12245 19.6531 3.12245C19.7892 3.12245 19.9082 3.07143 20.0103 2.96939L20.7501 2.22959C20.8351 2.14456 20.9286 2.1233 21.0307 2.16582C21.1327 2.20833 21.1838 2.28912 21.1838 2.40816V21.5918C21.1838 21.7109 21.1327 21.7917 21.0307 21.8342C20.9286 21.8767 20.8351 21.8554 20.7501 21.7704L20.0103 21.0306C19.9082 20.9286 19.7892 20.8775 19.6531 20.8775C19.5171 20.8775 19.398 20.9286 19.296 21.0306L18.4797 21.8469C18.3776 21.949 18.2586 22 18.1225 22C17.9865 22 17.8674 21.949 17.7654 21.8469L16.9491 21.0306C16.847 20.9286 16.728 20.8775 16.5919 20.8775C16.4559 20.8775 16.3368 20.9286 16.2348 21.0306L15.4184 21.8469C15.3164 21.949 15.1974 22 15.0613 22C14.9252 22 14.8062 21.949 14.7042 21.8469L13.8878 21.0306C13.7858 20.9286 13.6667 20.8775 13.5307 20.8775C13.3946 20.8775 13.2756 20.9286 13.1735 21.0306L12.3572 21.8469C12.2552 21.949 12.1361 22 12.0001 22C11.864 22 11.745 21.949 11.6429 21.8469L10.8266 21.0306C10.7246 20.9286 10.6055 20.8775 10.4695 20.8775C10.3334 20.8775 10.2144 20.9286 10.1123 21.0306L9.296 21.8469C9.19396 21.949 9.07491 22 8.93885 22C8.8028 22 8.68375 21.949 8.58171 21.8469L7.76539 21.0306C7.66334 20.9286 7.5443 20.8775 7.40824 20.8775C7.27219 20.8775 7.15314 20.9286 7.0511 21.0306L6.23477 21.8469C6.13273 21.949 6.01368 22 5.87763 22C5.74158 22 5.62253 21.949 5.52049 21.8469L4.70416 21.0306C4.60212 20.9286 4.48307 20.8775 4.34702 20.8775C4.21096 20.8775 4.09192 20.9286 3.98988 21.0306L3.25008 21.7704C3.16505 21.8554 3.07151 21.8767 2.96947 21.8342C2.86743 21.7917 2.81641 21.7109 2.81641 21.5918ZM6.89804 17.102H17.1021C17.3912 17.102 17.6336 17.0043 17.8292 16.8087C18.0247 16.6131 18.1225 16.3707 18.1225 16.0816C18.1225 15.7925 18.0247 15.5502 17.8292 15.3546C17.6336 15.159 17.3912 15.0612 17.1021 15.0612H6.89804C6.60892 15.0612 6.36658 15.159 6.171 15.3546C5.97542 15.5502 5.87763 15.7925 5.87763 16.0816C5.87763 16.3707 5.97542 16.6131 6.171 16.8087C6.36658 17.0043 6.60892 17.102 6.89804 17.102ZM6.89804 13.0204H17.1021C17.3912 13.0204 17.6336 12.9226 17.8292 12.727C18.0247 12.5315 18.1225 12.2891 18.1225 12C18.1225 11.7109 18.0247 11.4685 17.8292 11.273C17.6336 11.0774 17.3912 10.9796 17.1021 10.9796H6.89804C6.60892 10.9796 6.36658 11.0774 6.171 11.273C5.97542 11.4685 5.87763 11.7109 5.87763 12C5.87763 12.2891 5.97542 12.5315 6.171 12.727C6.36658 12.9226 6.60892 13.0204 6.89804 13.0204ZM6.89804 8.93877H17.1021C17.3912 8.93877 17.6336 8.84099 17.8292 8.64541C18.0247 8.44983 18.1225 8.20748 18.1225 7.91837C18.1225 7.62925 18.0247 7.3869 17.8292 7.19133C17.6336 6.99575 17.3912 6.89796 17.1021 6.89796H6.89804C6.60892 6.89796 6.36658 6.99575 6.171 7.19133C5.97542 7.3869 5.87763 7.62925 5.87763 7.91837C5.87763 8.20748 5.97542 8.44983 6.171 8.64541C6.36658 8.84099 6.60892 8.93877 6.89804 8.93877ZM4.85722 19.2449H19.1429V4.7551H4.85722V19.2449Z" fill="#404040"/>
          </svg>