<svg width="24" height="24" viewBox="0 0 24 24" fill="none" xmlns="http://www.w3.org/2000/svg">
            <path d="M20.4581 4.93449C19.9694 4.44559 19.3892 4.05776 18.7506 3.79316C18.112 3.52856 17.4275 3.39236 16.7363 3.39236C16.045 3.39236 15.3606 3.52856 14.722 3.79316C14.0834 4.05776 13.5032 4.44559 13.0145 4.93449L12.0003 5.94866L10.9862 4.93449C9.99909 3.94741 8.66032 3.39288 7.26438 3.39288C5.86844 3.39288 4.52967 3.94741 3.54259 4.93449C2.55551 5.92157 2.00098 7.26034 2.00098 8.65628C2.00098 10.0522 2.55551 11.391 3.54259 12.3781L12.0003 20.8358L20.4581 12.3781C20.947 11.8894 21.3348 11.3092 21.5994 10.6706C21.864 10.032 22.0002 9.34753 22.0002 8.65628C22.0002 7.96503 21.864 7.28056 21.5994 6.64197C21.3348 6.00337 20.947 5.42316 20.4581 4.93449Z" stroke="#404040" stroke-width="2" stroke-linecap="round" stroke-linejoin="round"/>
          </svg>